<svg xmlns="http://www.w3.org/2000/svg" width="55" height="58.554" viewBox="0 0 55 58.554">
  <g id="Icons_microscope" data-name="Icons/ microscope" transform="translate(1.5 1.5)">
    <g id="Icons_microscope-2" data-name="Icons/ microscope">
      <path id="Path" d="M17.2,20.524l-4.8,5.03a3.851,3.851,0,0,1-5.6,0L1.2,19.921a3.907,3.907,0,0,1,0-5.634L15.4,0,26,10.665" transform="translate(11.6 2.616)" fill="none" stroke="#e5184e" stroke-linecap="round" stroke-linejoin="round" stroke-miterlimit="10" stroke-width="3"/>
      <path id="Path-2" data-name="Path" d="M41.6,0A20.179,20.179,0,0,1,32,37.829H0V33.8A4.024,4.024,0,0,1,4,29.78H24l8,8.049" transform="translate(0 17.104)" fill="none" stroke="#e5184e" stroke-linecap="round" stroke-linejoin="round" stroke-miterlimit="10" stroke-width="3"/>
      <path id="Path-3" data-name="Path" d="M15.6,0a12.135,12.135,0,0,1,4.8,9.86A12.159,12.159,0,0,1,8,21.933H0" transform="translate(24 24.951)" fill="none" stroke="#e5184e" stroke-linecap="round" stroke-linejoin="round" stroke-miterlimit="10" stroke-width="3"/>
      <path id="Path-4" data-name="Path" d="M10.6,5.835,6.2,10.061a1.925,1.925,0,0,1-2.8,0L.6,7.244a1.953,1.953,0,0,1,0-2.817L5,0" transform="translate(7.8 22.335)" fill="none" stroke="#e5184e" stroke-linecap="round" stroke-linejoin="round" stroke-miterlimit="10" stroke-width="3"/>
      <path id="Path-5" data-name="Path" d="M0,4.024,3.4.6A1.925,1.925,0,0,1,6.2.6l4.2,4.226a1.953,1.953,0,0,1,0,2.817L7,11.067" transform="translate(28.4)" fill="none" stroke="#e5184e" stroke-linecap="round" stroke-linejoin="round" stroke-miterlimit="10" stroke-width="3"/>
      <ellipse id="Oval" cx="7" cy="7.043" rx="7" ry="7.043" transform="translate(28 12.677)" fill="none" stroke="#0e3f6c" stroke-linecap="round" stroke-linejoin="round" stroke-miterlimit="10" stroke-width="3"/>
    </g>
  </g>
</svg>
