<svg xmlns="http://www.w3.org/2000/svg" width="43.813" height="56.678" viewBox="0 0 43.813 56.678">
  <g id="ct-scan" transform="translate(-58.65 0.5)">
    <path id="Path_17926" data-name="Path 17926" d="M100.588,39.226H98.777a1.433,1.433,0,0,1-1.431-1.431V34.682a21.4,21.4,0,0,0-31.527-28.8.816.816,0,1,0,1.123,1.183,19.77,19.77,0,0,1,5.277-3.6,21.52,21.52,0,0,0,16.665,0,19.767,19.767,0,0,1,2.74,34.32l-2.658-8.244a11.584,11.584,0,0,0,3.3-8.142,11.707,11.707,0,0,0-23.413,0,11.583,11.583,0,0,0,3.3,8.142l-2.658,8.244a19.747,19.747,0,0,1-8.708-16.387,19.627,19.627,0,0,1,3.756-11.6.816.816,0,0,0-1.321-.958,21.35,21.35,0,0,0,.55,25.83v3.113a1.433,1.433,0,0,1-1.431,1.431H60.526A1.377,1.377,0,0,0,59.15,40.6v7.164a1.377,1.377,0,0,0,1.376,1.376h8.866a7.521,7.521,0,0,0,2.695,1.794V54.3a1.377,1.377,0,0,0,1.376,1.376H87.651A1.377,1.377,0,0,0,89.027,54.3V50.935a7.521,7.521,0,0,0,2.695-1.794h2.633a.816.816,0,1,0,0-1.631H92.64a3.679,3.679,0,0,0,.131-.977V41.482a.849.849,0,0,0-.039-.249h0l-.588-1.825a21.517,21.517,0,0,0,3.571-2.891v1.278a3.066,3.066,0,0,0,3.062,3.062h1.555V47.51H98.16a.816.816,0,0,0,0,1.631h2.427a1.377,1.377,0,0,0,1.376-1.376V40.6A1.377,1.377,0,0,0,100.588,39.226ZM74.5,2.576a19.834,19.834,0,0,1,12.108,0,19.969,19.969,0,0,1-12.108,0ZM75.68,44.262H69.973V42.3H91.141v1.965H85.434A1.138,1.138,0,0,0,84.3,45.4v.937h-7.48V45.4a1.138,1.138,0,0,0-1.137-1.137Zm-5.4-3.6,3.952-12.259h2.387v2.217a1.3,1.3,0,0,0,1.3,1.3H83.2a1.3,1.3,0,0,0,1.3-1.3V28.407h2.387l3.952,12.259Zm12.59-12.259V30.29h-4.62V28.407Zm-12.385-7a10.075,10.075,0,0,1,20.151,0,9.964,9.964,0,0,1-2.245,6.343l-.007-.021a1.371,1.371,0,0,0-1.309-.953H74.043a1.371,1.371,0,0,0-1.309.953l-.007.021a9.964,9.964,0,0,1-2.245-6.343Zm-9.7,26.1V40.857h1.555A3.066,3.066,0,0,0,65.4,37.795V36.516a21.521,21.521,0,0,0,3.571,2.891l-.588,1.825h0a.878.878,0,0,0-.039.249v5.051a3.679,3.679,0,0,0,.131.977Zm12.936,6.537V51.511a27.087,27.087,0,0,0,13.678,0v2.535Zm6.839-3.289a21.707,21.707,0,0,1-7.539-1.2c-3.844-1.511-2.9-3.384-3.045-3.66h5.213v.937a1.138,1.138,0,0,0,1.137,1.137h8.468a1.138,1.138,0,0,0,1.137-1.137v-.937h5.213a2.806,2.806,0,0,1-.426,1.9C88.66,50.189,83.7,50.758,80.557,50.758Z" transform="translate(0)" fill="#e5184e" stroke="#e5184e" stroke-width="1"/>
    <path id="Path_17927" data-name="Path 17927" d="M250.131,61.347v-.112a.816.816,0,1,0-1.631,0v.112a.816.816,0,1,0,1.631,0Z" transform="translate(-168.759 -53.85)" fill="#0e3f6c" stroke="#0e3f6c" stroke-width="1"/>
    <path id="Path_17928" data-name="Path 17928" d="M120.5,190.977a.816.816,0,0,0,0-1.631h-.112a.816.816,0,1,0,0,1.631Z" transform="translate(-53.854 -168.755)" fill="#0e3f6c" stroke="#0e3f6c" stroke-width="1"/>
    <path id="Path_17929" data-name="Path 17929" d="M377.324,190.977a.816.816,0,1,0,0-1.631h-.112a.816.816,0,0,0,0,1.631Z" transform="translate(-282.748 -168.755)" fill="#0e3f6c" stroke="#0e3f6c" stroke-width="1"/>
  </g>
</svg>
